<?xml version="1.0" encoding="UTF-8" standalone="no"?>
<svg
   width="1000"
   height="388.086"
   viewBox="0 0 1000 388.08599"
   fill="none"
   version="1.1"
   id="svg2"
   sodipodi:docname="logo-sura-blanco.svg"
   inkscape:version="1.3.2 (091e20e, 2023-11-25, custom)"
   xmlns:inkscape="http://www.inkscape.org/namespaces/inkscape"
   xmlns:sodipodi="http://sodipodi.sourceforge.net/DTD/sodipodi-0.dtd"
   xmlns="http://www.w3.org/2000/svg"
   xmlns:svg="http://www.w3.org/2000/svg"
   xmlns:rdf="http://www.w3.org/1999/02/22-rdf-syntax-ns#"
   xmlns:cc="http://creativecommons.org/ns#"
   xmlns:dc="http://purl.org/dc/elements/1.1/">
  <title
     id="title2">Grupo SURA</title>
  <defs
     id="defs2" />
  <sodipodi:namedview
     id="namedview2"
     pagecolor="#ffffff"
     bordercolor="#666666"
     borderopacity="1.0"
     inkscape:showpageshadow="2"
     inkscape:pageopacity="0.0"
     inkscape:pagecheckerboard="0"
     inkscape:deskcolor="#d1d1d1"
     showgrid="false"
     inkscape:zoom="0.732"
     inkscape:cx="500"
     inkscape:cy="193.98907"
     inkscape:window-width="1366"
     inkscape:window-height="705"
     inkscape:window-x="-8"
     inkscape:window-y="-8"
     inkscape:window-maximized="1"
     inkscape:current-layer="svg2" />
  <g
     id="g2"
     transform="matrix(6.4189189,0,0,6.4189189,25.000001,25.00015)"
     style="stroke-width:0.155789">
    <path
       d="m 114.063,4.24778 c 0.38,0.48546 0.759,0.8091 1.464,1.24062 0.271,0.16182 0.488,0.32364 0.759,0.43152 l 1.735,0.91698 c 1.03,0.48546 15.83,7.5516 17.998,8.6304 2.548,1.2946 5.096,2.5352 6.289,3.1285 0.108,0 0.162,0 0.108,-0.1618 -2.765,-1.78 -13.39,-8.57645 -20.926,-13.32318 L 116.015,1.76654 115.039,1.1732 113.196,0.0404551 c -0.109,-0.0539401 -0.163,-0.0539401 -0.163,0 -0.054,0 -0.108,0.0539384 -0.108,0.1078789 0,0.2697 -0.055,1.672146 0.379,2.750946 0.217,0.43152 0.434,0.91698 0.759,1.3485 z m -0.867,7.65952 c 0.759,0.8091 1.68,1.3485 2.819,1.7261 l 0.108,0.0539 c 0.325,0.1079 19.571,5.2861 24.667,6.6886 2.222,0.5933 4.011,1.0788 4.825,1.3485 0.108,0 0.162,0 0.162,-0.1079 0,0 0,-0.054 -0.054,-0.054 -3.198,-1.3485 -23.04,-9.0619 -30.521,-12.02859 l -3.145,-1.24063 c -0.108,0 -0.162,1e-5 -0.162,0.05395 -0.055,0.05394 -0.055,0.10788 -0.055,0.10788 0.055,0.2697 0.163,1.72609 0.814,2.75099 0.162,0.2157 0.325,0.4315 0.542,0.7012 z m 33.394,13.485 c -0.921,0 -2.819,0 -5.204,0 -2.711,0 -6.126,0 -9.27,0 -4.229,0 -11.005,0 -11.005,0 0,0 -0.055,0 -0.109,0.0539 -0.054,0.054 -0.054,0.1079 0,0.1619 0.109,0.2697 0.488,1.0248 0.922,1.4563 0.813,0.8631 1.789,1.3485 2.71,1.4564 0.109,0 0.217,0 0.326,0 0.108,0 0.217,0 0.325,-0.0539 0.108,0 20.167,-2.751 21.251,-2.9128 0.054,0 0.109,-0.0539 0.109,-0.1079 0.054,-0.0539 0,-0.0539 -0.055,-0.0539 z m -11.167,9.7631 c -1.735,1.0788 -3.904,2.2655 -5.042,2.9667 -0.108,0.1079 -0.217,0.1079 -0.163,0.4316 0,0 0.055,0.3236 0.109,0.7012 0.108,1.6721 0.813,1.5103 1.789,0.7552 l 0.108,-0.1079 c 3.47,-2.8589 9.921,-8.3068 11.331,-9.4935 0.054,-0.1079 0,-0.1618 -0.055,-0.1618 -1.409,0.863 -5.041,3.0746 -8.077,4.9085 z m 9.65,-7.7134 c -1.247,0.3776 -5.964,1.5643 -10.138,2.5891 -3.632,0.917 -7.698,2.0498 -7.698,2.0498 -0.38,0.1078 -0.271,0.2697 -0.217,0.3236 0.108,0.1618 0.379,0.5394 0.596,1.0249 0.651,1.0788 1.518,0.9709 2.331,0.6472 0.109,-0.0539 14.529,-6.0412 15.18,-6.4728 0.108,-0.0539 0.054,-0.1078 0.054,-0.1078 0.054,-0.054 -0.054,-0.054 -0.108,-0.054 z m 2.819,-3.8837 c -2.548,-0.4854 -33.612,-6.1491 -33.612,-6.1491 -0.054,0 -0.108,0 -0.163,0.0539 -0.054,0.0539 -0.054,0.1079 0,0.1618 0.488,1.6182 1.681,3.2904 3.795,3.9376 0.217,0.054 0.434,0.1079 0.705,0.1079 0,0 26.347,1.834 29.275,2.0498 0.054,0 0.108,-10e-5 0.108,-0.054 0,0 -0.054,-0.1079 -0.108,-0.1079 z m -27.269,24.4888 c -2.982,1.0249 -6.289,1.9419 -9.813,2.4813 -0.054,0 -0.108,0.0539 -0.108,0.1078 0,0.054 0,0.1079 0,0.1079 0.596,0.4855 1.355,0.7552 2.277,0.8631 1.138,0.1618 2.494,0 4.12,-0.4316 1.409,-0.3775 2.765,-0.9709 4.283,-1.726 1.409,-0.7013 2.819,-1.5104 4.011,-2.3195 1.193,-0.863 2.115,-1.6721 2.657,-2.4273 0.054,-0.1078 0,-0.1618 -0.054,-0.1618 -1.898,1.2946 -4.392,2.4813 -7.373,3.5061 z m 18.107,-10.5722 -0.055,0.0539 c -1.951,1.5643 -4.824,4.0995 -7.806,6.6886 -0.271,0.2157 -0.434,0.6473 -0.542,1.1867 -0.163,0.863 -0.651,1.9957 -0.651,1.9957 -0.054,0.2158 0.054,0.3237 0.271,0.1079 2.331,-2.4812 7.482,-8.1989 8.837,-9.8171 0.054,-0.1618 0,-0.2157 -0.054,-0.2157 z m -11.114,5.34 c 0.054,-0.1078 0,-0.1618 -0.054,-0.1618 -2.873,1.1328 -9.216,2.2655 -13.174,2.8588 -3.415,0.4855 -6.342,0.5934 -7.969,0.7013 h -0.705 c -0.108,0.0539 -0.162,0.1078 -0.162,0.1618 0,0.0539 0.054,0.1079 0.054,0.1618 0.271,0.3236 1.247,1.2406 3.144,1.5103 2.223,0.3237 5.476,-0.2157 9.542,-1.4024 3.469,-0.9709 7.427,-2.6431 9.324,-3.8298 z m -0.325,5.0704 c 0,0 -0.054,0 -0.109,0.0539 -2.493,2.4273 -6.126,3.7758 -7.318,4.1534 -0.054,0 -0.109,0.054 -0.109,0.1079 0,0.054 0.055,0.1618 0.109,0.1618 0.217,0.1079 1.68,0.8631 4.445,-0.4854 1.572,-0.8091 2.386,-2.1037 3.09,-3.8298 0,-0.0539 -0.054,-0.1079 -0.108,-0.1618 z"
       fill="#00aec7"
       id="path1"
       style="stroke-width:0.0242704" />
    <path
       d="M 15.1795,25.716 8.89082,23.9899 c -1.7348,-0.4854 -3.30695,-1.2406 -3.30695,-3.3982 0,-2.2115 1.3553,-3.2903 4.12013,-3.2903 h 5.5839 c 2.4937,0 5.4212,-0.8091 5.4212,-4.9086 H 10.1919 C 3.74065,12.4468 0,15.6832 0,20.4299 c 0,4.4231 2.76482,6.8504 7.69815,8.1989 l 5.47545,1.4564 c 2.2769,0.5933 3.0901,2.0497 3.0901,3.5061 0,2.2115 -1.4095,3.56 -4.7707,3.56 L 1.03003,37.2592 v 4.8007 H 11.6557 c 6.5054,0 10.1919,-3.5061 10.1919,-8.145 0,-4.5849 -1.789,-6.8504 -6.6681,-8.1989 z M 88.6914,12.4468 h -1.3011 c -6.8308,0 -13.2278,5.0703 -13.4989,14.9414 -0.2711,8.954 4.3912,15.265 12.252,15.265 6.4513,0 8.7282,-4.531 8.7282,-4.531 0.3795,3.0207 2.0058,3.9377 5.2044,3.9377 V 12.3928 Z m 5.8549,17.4766 c 0,4.0994 -2.3311,7.9831 -7.4271,7.9831 -4.5538,0 -7.8066,-3.0746 -7.5897,-10.4644 0.2168,-7.1201 3.578,-10.2486 8.0776,-10.2486 0.3795,0 0.7048,0 0.9758,-0.054 h 5.9634 z M 43.912,12.4468 v 20.5511 c 0,2.9667 -2.4396,4.4771 -5.6923,4.4771 -3.4154,0 -5.6923,-1.5104 -5.6923,-4.4771 L 32.4732,17.625 c 0,-4.3691 -2.7106,-5.1782 -5.096,-5.1782 v 21.8457 c 0,5.5019 4.8791,8.1989 10.6256,8.1989 5.5839,0 11.0594,-2.697 11.0051,-8.1989 V 18.3262 c 0.0543,-4.3691 -1.5721,-5.8794 -5.0959,-5.8794 z m 22.8234,0 c -6.3429,0 -10.7341,3.7218 -10.7341,11.3274 v 18.3396 h 5.1502 V 23.6124 c 0,-3.9377 2.1143,-6.311 6.0718,-6.311 h 1.5179 c 4.4997,0 5.2586,-2.3195 5.2586,-4.9086 h -7.2644 z"
       fill="#0033a0"
       id="path2"
       style="stroke-width:0.0242704" />
  </g>
  <metadata
     id="metadata2">
    <rdf:RDF>
      <cc:Work
         rdf:about="">
        <dc:title>Grupo SURA</dc:title>
        <dc:subject>
          <rdf:Bag>
            <rdf:li>Grupo</rdf:li>
            <rdf:li>SURA</rdf:li>
            <rdf:li>Seguros</rdf:li>
            <rdf:li>Insurance</rdf:li>
            <rdf:li>Logotipo</rdf:li>
            <rdf:li>Logo</rdf:li>
            <rdf:li>Isotipo</rdf:li>
            <rdf:li>PNG</rdf:li>
            <rdf:li>SVG</rdf:li>
            <rdf:li>PDF</rdf:li>
            <rdf:li>Illustrator</rdf:li>
            <rdf:li>Transparente</rdf:li>
            <rdf:li>Vector</rdf:li>
            <rdf:li>Vectorial</rdf:li>
          </rdf:Bag>
        </dc:subject>
      </cc:Work>
    </rdf:RDF>
  </metadata>
</svg>
